<svg width="24" height="24" viewBox="0 0 24 24" fill="none" xmlns="http://www.w3.org/2000/svg">
<mask id="mask0_161_135" style="mask-type:alpha" maskUnits="userSpaceOnUse" x="0" y="0" width="24" height="24">
<rect width="24" height="24" fill="#D9D9D9"/>
</mask>
<g mask="url(#mask0_161_135)">
<path d="M3 17.6C3.55228 17.6 4 17.1523 4 16.6V12.383C4 11.6243 4.81181 11.142 5.47817 11.5048L12.5214 15.3394C12.8197 15.5018 13.1802 15.5017 13.4784 15.339L22.3905 10.4779C23.0854 10.0989 23.0854 9.1011 22.3905 8.72208L13.4789 3.86117C13.1804 3.69836 12.8196 3.69836 12.5211 3.86117L2.52115 9.31571C2.19989 9.49095 2 9.82766 2 10.1936V16.6C2 17.1523 2.44772 17.6 3 17.6ZM12.5229 21.341C12.8205 21.5025 13.1795 21.5025 13.4771 21.341L19.4771 18.0838C19.7993 17.9089 20 17.5716 20 17.205V14.4807C20 13.7225 19.1892 13.2401 18.5229 13.6018L13.4771 16.341C13.1795 16.5025 12.8205 16.5025 12.5229 16.341L7.47709 13.6018C6.81077 13.2401 6 13.7225 6 14.4807V17.205C6 17.5716 6.20066 17.9089 6.52291 18.0838L12.5229 21.341Z" fill="#FAFAFA"/>
</g>
</svg>
