<svg width="24" height="24" viewBox="0 0 24 24" fill="none" xmlns="http://www.w3.org/2000/svg">
<mask id="mask0_161_145" style="mask-type:alpha" maskUnits="userSpaceOnUse" x="0" y="0" width="24" height="24">
<rect width="24" height="24" rx="1" fill="#D9D9D9"/>
</mask>
<g mask="url(#mask0_161_145)">
<path d="M11.9938 23.0031C10.1271 23.0031 8.41044 22.5781 6.84377 21.7281C5.8948 21.2132 5.04979 20.5944 4.30873 19.8716C3.85858 19.4326 2.99377 19.7298 2.99377 20.3586C2.99377 20.7146 2.70524 21.0031 2.34931 21.0031H1.99377C1.44149 21.0031 0.993774 20.5554 0.993774 20.0031V16.0031C0.993774 15.4508 1.44149 15.0031 1.99377 15.0031H5.99377C6.54606 15.0031 6.99377 15.4508 6.99377 16.0031V16.1403C6.99377 16.6168 6.60748 17.0031 6.13096 17.0031C5.44183 17.0031 5.04933 17.7619 5.52843 18.2572C6.14702 18.8967 6.86463 19.4454 7.68127 19.9031C8.98961 20.6364 10.4271 21.0031 11.9938 21.0031C13.2438 21.0031 14.4146 20.7656 15.5063 20.2906C16.5979 19.8156 17.5479 19.1739 18.3563 18.3656C19.1646 17.5573 19.8063 16.6073 20.2813 15.5156C20.6276 14.7196 20.8477 13.8815 20.9415 13.0013C21 12.4521 21.4415 12.0031 21.9938 12.0031C22.5461 12.0031 22.9988 12.4517 22.9511 13.0019C22.8516 14.1494 22.5783 15.2415 22.1313 16.2781C21.5563 17.6114 20.7688 18.7781 19.7688 19.7781C18.7688 20.7781 17.6021 21.5656 16.2688 22.1406C14.9354 22.7156 13.5104 23.0031 11.9938 23.0031ZM11.8188 19.0031C11.4184 19.0031 11.0938 18.6785 11.0938 18.2781C11.0938 17.9413 10.8592 17.6553 10.5428 17.54C10.006 17.3446 9.55213 17.0615 9.18127 16.6906C8.85509 16.3644 8.58576 15.9704 8.37328 15.5085C8.18243 15.0936 8.41893 14.625 8.8438 14.4577C9.3271 14.2673 9.85359 14.5458 10.1223 14.9904C10.2798 15.2509 10.4661 15.4677 10.6813 15.6406C11.1063 15.9823 11.5938 16.1531 12.1438 16.1531C12.6938 16.1531 13.1646 16.0239 13.5563 15.7656C13.9479 15.5073 14.1438 15.1031 14.1438 14.5531C14.1438 14.0698 13.9396 13.6781 13.5313 13.3781C13.1229 13.0781 12.3938 12.7364 11.3438 12.3531C10.3604 12.0031 9.63961 11.5864 9.18127 11.1031C8.72294 10.6198 8.49377 9.98645 8.49377 9.20311C8.49377 8.51978 8.73128 7.89895 9.20627 7.34061C9.57089 6.91203 10.0362 6.59884 10.6021 6.40104C10.9108 6.29315 11.1438 6.01824 11.1438 5.69124C11.1438 5.3112 11.4519 5.00311 11.8319 5.00311H12.2428C12.6023 5.00311 12.8938 5.29457 12.8938 5.65411C12.8938 5.99269 13.1576 6.26606 13.4803 6.36845C13.8545 6.48717 14.2048 6.6904 14.5313 6.97811C14.8051 7.21942 15.031 7.48398 15.2092 7.77179C15.449 8.15912 15.2188 8.63514 14.7967 8.80659C14.3329 8.99504 13.8169 8.73482 13.4769 8.36722C13.4198 8.30542 13.3587 8.24655 13.2938 8.19061C12.9938 7.93228 12.5771 7.80311 12.0438 7.80311C11.4604 7.80311 11.0146 7.92811 10.7063 8.17811C10.3979 8.42811 10.2438 8.76978 10.2438 9.20311C10.2438 9.63645 10.4354 9.97811 10.8188 10.2281C11.2021 10.4781 11.8938 10.7698 12.8938 11.1031C14.0938 11.5364 14.8938 12.0448 15.2938 12.6281C15.6938 13.2114 15.8938 13.8531 15.8938 14.5531C15.8938 15.0364 15.8104 15.4614 15.6438 15.8281C15.4771 16.1948 15.2563 16.5073 14.9813 16.7656C14.7063 17.0239 14.3854 17.2323 14.0188 17.3906C13.8169 17.4778 13.6074 17.5536 13.3903 17.6181C13.0764 17.7113 12.8438 17.9888 12.8438 18.3162C12.8438 18.6956 12.5362 19.0031 12.1569 19.0031H11.8188ZM1.99377 12.0031C1.44149 12.0031 0.988779 11.5545 1.03648 11.0043C1.13595 9.85683 1.40922 8.76477 1.85627 7.72811C2.43127 6.39478 3.21877 5.22811 4.21877 4.22811C5.21877 3.22811 6.38544 2.44061 7.71877 1.86561C9.05211 1.29061 10.4771 1.00311 11.9938 1.00311C13.8604 1.00311 15.5771 1.42811 17.1438 2.27811C18.0927 2.79298 18.9378 3.41181 19.6788 4.13459C20.129 4.57363 20.9938 4.27638 20.9938 3.64758C20.9938 3.29165 21.2823 3.00311 21.6382 3.00311H21.9938C22.5461 3.00311 22.9938 3.45083 22.9938 4.00311V8.00311C22.9938 8.5554 22.5461 9.00311 21.9938 9.00311H17.9938C17.4415 9.00311 16.9938 8.5554 16.9938 8.00311V7.86593C16.9938 7.38941 17.3801 7.00311 17.8566 7.00311C18.5457 7.00311 18.9382 6.24438 18.4591 5.74904C17.8405 5.10949 17.1229 4.56085 16.3063 4.10311C14.9979 3.36978 13.5604 3.00311 11.9938 3.00311C10.7438 3.00311 9.57294 3.24061 8.48127 3.71561C7.38961 4.19061 6.43961 4.83228 5.63127 5.64061C4.82294 6.44895 4.18127 7.39895 3.70627 8.49061C3.35992 9.28662 3.13984 10.1247 3.04604 11.0049C2.98751 11.5541 2.54606 12.0031 1.99377 12.0031Z" fill="#D4D4D4"/>
</g>
</svg>
