<svg width="13" height="18" viewBox="0 0 13 18" fill="none" xmlns="http://www.w3.org/2000/svg">
<path d="M4.31972 17.3333C3.71117 17.3333 3.24371 16.7943 3.32977 16.1919L3.83698 12.6414C3.92304 12.039 3.45558 11.5 2.84703 11.5H1.74194C0.935281 11.5 0.46059 10.594 0.91975 9.93079L7.03513 1.09746C7.22192 0.82766 7.53232 0.666668 7.86047 0.666668C8.46197 0.666668 8.93414 1.19385 8.85954 1.7907L8.30721 6.2093C8.2326 6.80615 8.69799 7.33333 9.29949 7.33333H11.0317C11.8795 7.33333 12.3427 8.32219 11.7999 8.97352L5.13322 16.9735C4.94323 17.2015 4.66178 17.3333 4.365 17.3333H4.31972Z" fill="#FACC15"/>
</svg>
