<svg width="21" height="20" viewBox="0 0 21 20" fill="none" xmlns="http://www.w3.org/2000/svg">
<mask id="mask0_161_1636" style="mask-type:alpha" maskUnits="userSpaceOnUse" x="0" y="0" width="21" height="20">
<rect x="0.5" width="20" height="20" rx="1" fill="#D9D9D9"/>
</mask>
<g mask="url(#mask0_161_1636)">
<path d="M8.31972 18.3333C7.71117 18.3333 7.24371 17.7943 7.32977 17.1919L7.83698 13.6414C7.92304 13.039 7.45558 12.5 6.84703 12.5H5.74194C4.93528 12.5 4.46059 11.594 4.91975 10.9308L11.0351 2.09746C11.2219 1.82766 11.5323 1.66667 11.8605 1.66667C12.462 1.66667 12.9341 2.19385 12.8595 2.7907L12.3072 7.2093C12.2326 7.80615 12.698 8.33333 13.2995 8.33333H15.0317C15.8795 8.33333 16.3427 9.32219 15.7999 9.97352L9.13322 17.9735C8.94323 18.2015 8.66178 18.3333 8.365 18.3333H8.31972Z" fill="#FACC15"/>
</g>
</svg>
