<svg width="24" height="24" viewBox="0 0 24 24" fill="none" xmlns="http://www.w3.org/2000/svg">
<path d="M2.5 11.7699C2.5 9.00846 4.73858 6.76988 7.5 6.76988H14.0147C17.8305 6.76988 20.9238 9.86319 20.9238 13.679C20.9238 17.4948 17.8305 20.5881 14.0147 20.5881H2.5V11.7699Z" fill="#FAFAFA"/>
<rect x="5.95386" y="12.8623" width="2.45651" height="2.45657" rx="1.22825" fill="#404040"/>
<rect x="10.2489" y="12.8622" width="2.45651" height="2.45657" rx="1.22825" fill="#404040"/>
<rect x="14.5488" y="12.8622" width="2.45651" height="2.45657" rx="1.22825" fill="#404040"/>
<path d="M18.0542 10.9015C17.7293 11.219 17.2103 11.219 16.8854 10.9015C16.207 10.2353 15.6461 9.66056 15.2028 9.17736C14.7595 8.69416 14.4068 8.26038 14.1449 7.87602C13.8829 7.49166 13.6999 7.13842 13.5957 6.81628C13.4916 6.49415 13.4396 6.1647 13.4396 5.82793C13.4396 5.13974 13.6512 4.56503 14.0743 4.10379C14.4975 3.64256 15.0248 3.41194 15.6562 3.41194C16.0055 3.41194 16.338 3.49247 16.6537 3.65354C17.1383 3.90077 17.8013 3.90077 18.2859 3.65354C18.6016 3.49247 18.9341 3.41194 19.2834 3.41194C19.9148 3.41194 20.4421 3.64256 20.8652 4.10379C21.2884 4.56503 21.5 5.13974 21.5 5.82793C21.5 6.1647 21.4479 6.49415 21.3438 6.81628C21.2397 7.13842 21.0567 7.49166 20.7947 7.87602C20.5327 8.26038 20.1801 8.69416 19.7368 9.17736C19.2935 9.66056 18.7326 10.2353 18.0542 10.9015Z" fill="#BE123C"/>
</svg>
