<svg width="21" height="21" viewBox="0 0 21 21" fill="none" xmlns="http://www.w3.org/2000/svg">
<path d="M5.99977 19.0003V7.97526C5.99977 7.42526 6.19977 6.95859 6.59977 6.57526C6.99977 6.19192 7.47477 6.00026 8.02477 6.00026H18.9998C19.5498 6.00026 20.0206 6.19609 20.4123 6.58776C20.8039 6.97942 20.9998 7.45026 20.9998 8.00026V15.586C20.9998 15.8513 20.8944 16.1056 20.7069 16.2932L16.2927 20.7074C16.1051 20.8949 15.8508 21.0003 15.5856 21.0003H7.99977C7.44977 21.0003 6.97894 20.8044 6.58727 20.4128C6.1956 20.0211 5.99977 19.5503 5.99977 19.0003ZM1.02477 5.25026C0.92477 4.70026 1.0331 4.20442 1.34977 3.76276C1.66644 3.32109 2.09977 3.05026 2.64977 2.95026L13.4998 1.02526C14.0498 0.925258 14.5456 1.03359 14.9873 1.35026C15.4289 1.66692 15.6998 2.10026 15.7998 2.65026L15.8309 2.81817C15.9447 3.43294 15.4728 4.00026 14.8476 4.00026H7.99977C6.89977 4.00026 5.9581 4.39192 5.17477 5.17526C4.39144 5.95859 3.99977 6.90026 3.99977 8.00026V16.6314C3.99977 17.0424 3.56234 17.2764 3.31227 16.9503C3.1206 16.7003 2.99977 16.4169 2.94977 16.1003L1.02477 5.25026ZM17.2927 16.7074C17.9226 16.0774 17.4765 15.0003 16.5856 15.0003H15.9998C15.4475 15.0003 14.9998 15.448 14.9998 16.0003V16.586C14.9998 17.4769 16.0769 17.9231 16.7069 17.2931L17.2927 16.7074Z" fill="#FAFAFA"/>
</svg>
