<svg width="24" height="24" viewBox="0 0 22 18" fill="none" xmlns="http://www.w3.org/2000/svg">
<path d="M17.9996 14C17.4473 14 16.9996 13.5523 16.9996 13V12.5C16.9996 11.6716 16.3281 11 15.4996 11H14.9996C14.4473 11 13.9996 10.5523 13.9996 10C13.9996 9.44771 14.4473 9 14.9996 9H15.4996C16.3281 9 16.9996 8.32843 16.9996 7.5V7C16.9996 6.44772 17.4473 6 17.9996 6C18.5519 6 18.9996 6.44772 18.9996 7V7.5C18.9996 8.32843 19.6712 9 20.4996 9H20.9996C21.5519 9 21.9996 9.44771 21.9996 10C21.9996 10.5523 21.5519 11 20.9996 11H20.4996C19.6712 11 18.9996 11.6716 18.9996 12.5V13C18.9996 13.5523 18.5519 14 17.9996 14ZM11.3355 16.8023C10.5754 17.4838 9.42413 17.4834 8.66446 16.8015L6.82463 15.15C5.62463 14.0667 4.59547 13.1 3.73713 12.25C2.8788 11.4 2.17047 10.6 1.61213 9.85C1.0538 9.1 0.645467 8.375 0.387134 7.675C0.1288 6.975 -0.000366211 6.24167 -0.000366211 5.475C-0.000366211 3.90833 0.524634 2.60417 1.57463 1.5625C2.62463 0.520833 3.93297 0 5.49963 0C6.3663 0 7.1913 0.179167 7.97463 0.5375C8.0386 0.56676 8.10184 0.597048 8.16436 0.628363C9.26694 1.18065 10.7323 1.18065 11.8349 0.628363C11.8974 0.597048 11.9607 0.56676 12.0246 0.5375C12.808 0.179167 13.633 0 14.4996 0C15.9163 0 17.1038 0.429167 18.0621 1.2875C18.7621 1.9144 19.2686 2.61909 19.5818 3.40157C19.7325 3.77808 19.3477 4.11491 18.9496 4.0375C18.6496 3.97917 18.358 3.95 18.0746 3.95C16.3913 3.95 14.958 4.5375 13.7746 5.7125C12.5913 6.8875 11.9996 8.31667 11.9996 10C11.9996 10.8667 12.1746 11.6875 12.5246 12.4625C12.6425 12.7236 12.7765 12.9719 12.9266 13.2075C13.3964 13.9449 13.4222 14.964 12.7621 15.5375C12.2538 15.9792 11.8163 16.3667 11.4496 16.7L11.3355 16.8023Z" fill="#FAFAFA"/>
</svg>
