<svg width="24" height="24" viewBox="0 0 24 24" fill="none" xmlns="http://www.w3.org/2000/svg">
<mask id="mask0_161_175" style="mask-type:alpha" maskUnits="userSpaceOnUse" x="0" y="0" width="24" height="24">
<rect width="24" height="24" fill="#D9D9D9"/>
</mask>
<g mask="url(#mask0_161_175)">
<path d="M19.4439 5.29814C18.1492 4.69241 16.7649 4.25219 15.3177 4.00153C15.14 4.32287 14.9323 4.75508 14.7891 5.0989C13.2507 4.86754 11.7264 4.86754 10.2163 5.0989C10.0731 4.75508 9.86075 4.32287 9.68142 4.00153C8.23263 4.25219 6.84675 4.69403 5.55211 5.30134C2.94082 9.24735 2.23294 13.0953 2.58688 16.8887C4.31883 18.1821 5.99729 18.9678 7.64743 19.4819C8.05486 18.9211 8.41823 18.3251 8.73127 17.6969C8.13508 17.4703 7.56406 17.1908 7.02451 16.8662C7.16765 16.7602 7.30767 16.6493 7.44294 16.5352C10.7338 18.0744 14.3094 18.0744 17.5609 16.5352C17.6978 16.6493 17.8377 16.7602 17.9793 16.8662C17.4382 17.1924 16.8656 17.4719 16.2694 17.6985C16.5825 18.3251 16.9443 18.9228 17.3533 19.4835C19.005 18.9693 20.685 18.1837 22.4169 16.8887C22.8322 12.4912 21.7075 8.67858 19.4439 5.29814ZM9.1796 14.5558C8.19172 14.5558 7.38158 13.6336 7.38158 12.5105C7.38158 11.3874 8.17442 10.4636 9.1796 10.4636C10.1848 10.4636 10.9949 11.3858 10.9776 12.5105C10.9792 13.6336 10.1848 14.5558 9.1796 14.5558ZM15.8242 14.5558C14.8364 14.5558 14.0262 13.6336 14.0262 12.5105C14.0262 11.3874 14.819 10.4636 15.8242 10.4636C16.8294 10.4636 17.6396 11.3858 17.6223 12.5105C17.6223 13.6336 16.8294 14.5558 15.8242 14.5558Z" fill="#FAFAFA"/>
</g>
</svg>
