<svg width="24" height="24" viewBox="0 0 24 24" fill="none" xmlns="http://www.w3.org/2000/svg">
<mask id="mask0_161_41" style="mask-type:luminance" maskUnits="userSpaceOnUse" x="0" y="0" width="24" height="24">
<path d="M0 0H24V24H0V0Z" fill="white"/>
</mask>
<g mask="url(#mask0_161_41)">
<path d="M11.5 2C6.26548 2 2 6.26548 2 11.5C2 16.7345 6.26548 21 11.5 21C16.7345 21 21 16.7345 21 11.5C21 6.26548 16.7345 2 11.5 2ZM15.7085 7.94698L12.8585 12.697C12.8199 12.7641 12.7641 12.8199 12.697 12.8585L7.94698 15.7085C7.87096 15.756 7.78551 15.775 7.70001 15.775C7.57652 15.775 7.45299 15.7275 7.36749 15.6325C7.20598 15.4805 7.17748 15.243 7.29148 15.053L10.1415 10.303C10.1801 10.2359 10.2359 10.1801 10.303 10.1415L15.053 7.29148C15.243 7.17748 15.4805 7.20598 15.6325 7.36749C15.794 7.51948 15.8225 7.75696 15.7085 7.94698Z" fill="#FAFAFA"/>
</g>
</svg>
