<svg width="24" height="24" viewBox="0 0 20 20" fill="none" xmlns="http://www.w3.org/2000/svg">
<mask id="mask0_161_63" style="mask-type:luminance" maskUnits="userSpaceOnUse" x="0" y="0" width="20" height="20">
<path d="M14.0714 0.5H5.92857C2.93045 0.5 0.5 2.93045 0.5 5.92857V14.0714C0.5 17.0695 2.93045 19.5 5.92857 19.5H14.0714C17.0695 19.5 19.5 17.0695 19.5 14.0714V5.92857C19.5 2.93045 17.0695 0.5 14.0714 0.5Z" fill="white"/>
</mask>
<g mask="url(#mask0_161_63)">
<path d="M10 18.3125C10.5123 12.1206 12.6816 10.2079 18.3125 10" stroke="#FAFAFA"/>
<path d="M10.5933 17.7188C10 15.3438 12.3745 11.1875 14.7495 10.5938H17.7183C18.9058 12.9688 17.7183 17.7188 15.937 17.7188H10.5933Z" fill="#FAFAFA"/>
<mask id="mask1_161_63" style="mask-type:alpha" maskUnits="userSpaceOnUse" x="4" y="4" width="8" height="8">
<path d="M9.78795 4.35938H5.71652C4.96699 4.35938 4.35938 4.96699 4.35938 5.71652V10.2726C4.35938 11.0222 4.96699 11.6298 5.71652 11.6298H9.78795C10.5375 11.6298 11.1451 11.0222 11.1451 10.2726V5.71652C11.1451 4.96699 10.5375 4.35938 9.78795 4.35938Z" fill="#D9D9D9"/>
</mask>
<g mask="url(#mask1_161_63)">
<path d="M7.81524 9.76482C7.61112 9.96088 7.28863 9.96088 7.08452 9.76482C6.66036 9.35537 6.30971 9.00216 6.03255 8.70519C5.75538 8.40823 5.5349 8.14163 5.37112 7.90541C5.20735 7.66919 5.09291 7.45209 5.02782 7.25412C4.96272 7.05614 4.93018 6.85367 4.93018 6.64669C4.93018 6.22373 5.06245 5.87052 5.32702 5.58706C5.59159 5.30359 5.92125 5.16187 6.31601 5.16187C6.53439 5.16187 6.74226 5.21136 6.93964 5.31034C7.24352 5.46274 7.65623 5.46274 7.96012 5.31034C8.15749 5.21136 8.36537 5.16187 8.58374 5.16187C8.97849 5.16187 9.30816 5.30359 9.57272 5.58706C9.83729 5.87052 9.96958 6.22373 9.96958 6.64669C9.96958 6.85367 9.93704 7.05614 9.87194 7.25412C9.80685 7.45209 9.69241 7.66919 9.52863 7.90541C9.36486 8.14163 9.14437 8.40823 8.86721 8.70519C8.59004 9.00216 8.23938 9.35537 7.81524 9.76482Z" fill="#FAFAFA"/>
</g>
</g>
<path d="M14.0682 1.51819H5.92536C3.48939 1.51819 1.51465 3.49293 1.51465 5.9289V14.0718C1.51465 16.5077 3.48939 18.4825 5.92536 18.4825H14.0682C16.5042 18.4825 18.4789 16.5077 18.4789 14.0718V5.9289C18.4789 3.49293 16.5042 1.51819 14.0682 1.51819Z" stroke="#FAFAFA" stroke-width="1.5"/>
</svg>
