<svg width="24" height="24" viewBox="0 0 24 24" fill="none" xmlns="http://www.w3.org/2000/svg">
<mask id="mask0_161_167" style="mask-type:alpha" maskUnits="userSpaceOnUse" x="0" y="0" width="24" height="24">
<rect width="24" height="24" rx="1" fill="#D9D9D9"/>
</mask>
<g mask="url(#mask0_161_167)">
<path d="M12.0004 21.9999C10.617 21.9999 9.31703 21.7374 8.10037 21.2124C6.8837 20.6874 5.82537 19.9749 4.92537 19.0749C4.02537 18.1749 3.31287 17.1166 2.78787 15.8999C2.26287 14.6833 2.00037 13.3833 2.00037 11.9999C2.00037 10.6166 2.26287 9.31661 2.78787 8.09994C3.31287 6.88327 4.02537 5.82494 4.92537 4.92494C5.82537 4.02494 6.8837 3.31244 8.10037 2.78744C9.31703 2.26244 10.617 1.99994 12.0004 1.99994C13.3837 1.99994 14.6837 2.26244 15.9004 2.78744C17.117 3.31244 18.1754 4.02494 19.0754 4.92494C19.9754 5.82494 20.6879 6.88327 21.2129 8.09994C21.7379 9.31661 22.0004 10.6166 22.0004 11.9999C22.0004 13.3833 21.7379 14.6833 21.2129 15.8999C20.6879 17.1166 19.9754 18.1749 19.0754 19.0749C18.1754 19.9749 17.117 20.6874 15.9004 21.2124C14.6837 21.7374 13.3837 21.9999 12.0004 21.9999ZM8.23147 19.0584C8.70403 19.3067 9.26826 19.0652 9.48176 18.5759L9.87207 17.6814C10.1037 17.1506 9.82816 16.5432 9.33926 16.2327C9.0306 16.0366 8.7468 15.8049 8.48787 15.5374C8.21084 15.2513 7.96723 14.9392 7.75703 14.6012C7.46304 14.1283 6.8808 13.8754 6.36714 14.0902L5.42698 14.4834C4.93577 14.6888 4.6851 15.2472 4.9253 15.7224C5.28478 16.4335 5.75146 17.076 6.32537 17.6499C6.89693 18.2215 7.5323 18.691 8.23147 19.0584ZM6.36714 9.90968C6.8808 10.1245 7.46304 9.87155 7.75703 9.39872C7.96723 9.06064 8.21084 8.74855 8.48787 8.46244C8.75066 8.19103 9.03907 7.95636 9.35309 7.75845C9.83795 7.45287 10.1146 6.85581 9.89353 6.32706L9.52204 5.43872C9.31456 4.94259 8.74783 4.69317 8.27049 4.94086C7.56231 5.30834 6.92227 5.77804 6.35037 6.34994C5.77846 6.92184 5.30877 7.56188 4.94129 8.27007C4.6936 8.7474 4.94301 9.31414 5.43915 9.52161L6.36714 9.90968ZM12.0004 14.9999C12.8337 14.9999 13.542 14.7083 14.1254 14.1249C14.7087 13.5416 15.0004 12.8333 15.0004 11.9999C15.0004 11.1666 14.7087 10.4583 14.1254 9.87494C13.542 9.29161 12.8337 8.99994 12.0004 8.99994C11.167 8.99994 10.4587 9.29161 9.87537 9.87494C9.29203 10.4583 9.00037 11.1666 9.00037 11.9999C9.00037 12.8333 9.29203 13.5416 9.87537 14.1249C10.4587 14.7083 11.167 14.9999 12.0004 14.9999ZM14.5268 18.5565C14.735 19.0545 15.305 19.3035 15.7825 19.0519C16.4744 18.6873 17.1011 18.2242 17.6629 17.6624C18.2281 17.0972 18.6936 16.466 19.0592 15.769C19.3071 15.2963 19.0656 14.732 18.5763 14.5185L17.6819 14.1282C17.151 13.8966 16.5437 14.1719 16.2354 14.6622C16.0415 14.9704 15.8132 15.2538 15.5504 15.5124C15.2711 15.7872 14.9674 16.0292 14.6394 16.2382C14.1726 16.5357 13.9238 17.1147 14.1373 17.6253L14.5268 18.5565ZM16.2356 9.37243C16.5345 9.83416 17.1102 10.0786 17.6176 9.86636L18.5569 9.47355C19.0549 9.2653 19.3039 8.69531 19.0523 8.21776C18.6877 7.52595 18.2246 6.89918 17.6629 6.33744C17.1026 5.77718 16.4777 5.315 15.788 4.9509C15.3085 4.69773 14.7361 4.94985 14.5301 5.45146L14.1454 6.38814C13.9298 6.91315 14.2027 7.50309 14.6824 7.8064C14.9876 7.99934 15.2686 8.22635 15.5254 8.48744C15.7932 8.75972 16.0299 9.05472 16.2356 9.37243Z" fill="#FAFAFA"/>
</g>
</svg>
