<svg width="24" height="24" viewBox="0 0 24 24" fill="none" xmlns="http://www.w3.org/2000/svg">
<g clip-path="url(#clip0_161_378)">
<path d="M2.5 11.9999C2.5 7.5216 2.5 5.28243 3.89124 3.89118C5.28249 2.49994 7.52166 2.49994 12 2.49994C16.4783 2.49994 18.7175 2.49994 20.1088 3.89118C21.5 5.28243 21.5 7.5216 21.5 11.9999C21.5 16.4782 21.5 18.7174 20.1088 20.1087C18.7175 21.4999 16.4783 21.4999 12 21.4999C7.52166 21.4999 5.28249 21.4999 3.89124 20.1087C2.5 18.7174 2.5 16.4782 2.5 11.9999Z" stroke="#FAFAFA" stroke-width="1.25" stroke-linejoin="round"/>
<path d="M16.5 11.9999C16.5 14.4852 14.4853 16.4999 12 16.4999C9.51472 16.4999 7.5 14.4852 7.5 11.9999C7.5 9.51466 9.51472 7.49994 12 7.49994C14.4853 7.49994 16.5 9.51466 16.5 11.9999Z" stroke="#FAFAFA" stroke-width="1.25"/>
<path d="M17.5078 6.49994H17.4988" stroke="#FAFAFA" stroke-width="1.66667" stroke-linecap="round" stroke-linejoin="round"/>
</g>
<defs>
<clipPath id="clip0_161_378">
<rect width="24" height="24" fill="white"/>
</clipPath>
</defs>
</svg>
