<svg width="16" height="16" viewBox="0 0 16 16" fill="none" xmlns="http://www.w3.org/2000/svg">
<mask id="mask0_161_141" style="mask-type:alpha" maskUnits="userSpaceOnUse" x="0" y="0" width="16" height="16">
<rect width="16" height="16" rx="1" fill="#D9D9D9"/>
</mask>
<g mask="url(#mask0_161_141)">
<path d="M3.33333 14C2.96667 14 2.65278 13.8694 2.39167 13.6083C2.13056 13.3472 2 13.0333 2 12.6667V3.33333C2 2.96667 2.13056 2.65278 2.39167 2.39167C2.65278 2.13056 2.96667 2 3.33333 2H7.33333C7.70152 2 8 2.29848 8 2.66667C8 3.03486 7.70152 3.33333 7.33333 3.33333H4.33333C3.78105 3.33333 3.33333 3.78105 3.33333 4.33333V11.6667C3.33333 12.219 3.78105 12.6667 4.33333 12.6667H11.6667C12.219 12.6667 12.6667 12.219 12.6667 11.6667V8.66667C12.6667 8.29848 12.9651 8 13.3333 8C13.7015 8 14 8.29848 14 8.66667V12.6667C14 13.0333 13.8694 13.3472 13.6083 13.6083C13.3472 13.8694 13.0333 14 12.6667 14H3.33333ZM6.93333 10C6.6756 10.2577 6.25773 10.2577 6 10C5.74227 9.74227 5.74227 9.3244 6 9.06667L10.5333 4.53333C10.9762 4.0905 10.6625 3.33333 10.0363 3.33333H10C9.63181 3.33333 9.33333 3.03486 9.33333 2.66667C9.33333 2.29848 9.63181 2 10 2H13C13.5523 2 14 2.44772 14 3V6C14 6.36819 13.7015 6.66667 13.3333 6.66667C12.9651 6.66667 12.6667 6.36819 12.6667 6V5.96372C12.6667 5.33747 11.9095 5.02384 11.4667 5.46667L6.93333 10Z" fill="#FAFAFA"/>
</g>
</svg>
