<svg width="22" height="30" viewBox="0 0 22 30" fill="none" xmlns="http://www.w3.org/2000/svg">
<path d="M14.115 2.28205C14.115 2.28205 13.87 5.67606 14.5509 8.40465C15.2319 11.1332 21.3265 25.8423 21.6159 26.5034C21.9054 27.1644 22.3307 28.9179 20.097 29.1572C17.8634 29.3964 13.0699 29.5963 11.001 29.6038C8.93204 29.6113 3.81669 29.4643 1.80302 29.2233C-0.210657 28.9823 0.0368321 27.409 0.225534 26.5807C0.414236 25.7524 6.62598 11.1643 6.9995 8.43195C7.37302 5.69954 7.16906 2.30715 7.16906 2.30715L7.08055 2.30747L14.115 2.28205Z" fill="#FAFAFA"/>
<path d="M6.46598 2.21656C6.46317 1.43956 7.09078 0.8074 7.86778 0.804592L13.4953 0.784252C14.2723 0.781443 14.9045 1.40905 14.9073 2.18605C14.9101 2.96306 14.2825 3.59522 13.5055 3.59803L7.87795 3.61837C7.10095 3.62118 6.46879 2.99357 6.46598 2.21656Z" fill="#FAFAFA"/>
<path d="M19.1543 27.3534C18.5339 27.4703 14.1114 27.749 10.9334 27.7882C7.72058 27.8279 3.04587 27.5279 2.66983 27.4391C0.773174 26.9911 1.99824 25.462 1.99824 25.462C1.99824 25.462 2.988 22.6871 3.96649 20.4893C6.10702 15.6813 8.12476 16.9236 9.33918 18.6492C11.1403 21.2083 15.4612 16.3925 16.7853 18.0429C17.428 18.844 19.7085 25.3979 19.7085 25.3979C19.7085 25.3979 21.2978 26.9496 19.1543 27.3534Z" fill="#E11D48"/>
<path d="M19.1987 28.2145C18.5782 28.3314 14.1557 28.6101 10.9778 28.6493C7.76493 28.6889 3.09022 28.389 2.71418 28.3002C0.817523 27.8522 1.64539 26.1261 1.64539 26.1261C1.64539 26.1261 2.79956 23.0194 3.77805 20.8216C5.91858 16.0136 7.93715 17.4214 9.15158 19.1469C10.9527 21.706 15.6938 16.8886 17.0179 18.5391C17.6606 19.3402 20.4323 26.0582 20.4323 26.0582C20.4323 26.0582 21.3422 27.8107 19.1987 28.2145Z" fill="#BE123C"/>
</svg>
