<svg width="24" height="24" viewBox="0 0 24 24" fill="none" xmlns="http://www.w3.org/2000/svg">
<path d="M18.4981 2.06021C18.1278 2.19615 17.7903 2.46803 17.509 2.85709L17.4387 2.95552L15.4231 2.51959C14.3168 2.28053 13.3512 2.08365 13.2809 2.08365C13.2012 2.07896 13.0981 2.13053 13.009 2.20553C12.8731 2.33209 12.8543 2.41178 12.2496 5.31803L11.6309 8.29928L10.9512 8.35084C8.8559 8.5149 6.9434 9.1149 5.39184 10.0899L4.92777 10.3805L4.74027 10.2352C3.74652 9.48053 2.37309 9.56959 1.49652 10.4415C0.540273 11.3977 0.530898 12.9305 1.47777 13.8915C1.6184 14.0368 1.8434 14.2149 1.96996 14.2852L2.20434 14.4165V15.1993C2.20434 15.8977 2.2184 16.0243 2.3309 16.4227C3.12777 19.2821 6.29652 21.443 10.4121 21.9305C11.659 22.0805 13.4825 22.0055 14.72 21.7618C16.4825 21.4055 18.1418 20.6837 19.3606 19.7321C19.8668 19.3337 20.6168 18.5415 20.9215 18.0868C21.5965 17.0696 21.9246 15.9258 21.8496 14.8524L21.8168 14.4305L22.07 14.2805C22.67 13.9243 23.134 13.2071 23.2325 12.4946C23.4106 11.2571 22.5434 10.0243 21.3153 9.77115C20.6121 9.62584 19.8387 9.80396 19.2856 10.2399C19.1918 10.3149 19.1028 10.3758 19.084 10.3758C19.07 10.3758 18.8965 10.268 18.695 10.1368C17.6825 9.47584 16.1356 8.86178 14.7996 8.59459C14.1762 8.47271 13.8528 8.42584 12.8403 8.32271L12.5121 8.2899L13.0653 5.69303C13.37 4.26334 13.6278 3.08677 13.6418 3.07271C13.67 3.04459 17.0496 3.74771 17.2184 3.81334C17.2934 3.84615 17.3215 3.89771 17.3215 4.01021C17.3215 4.20709 17.5465 4.68052 17.7387 4.90084C17.959 5.15396 18.2965 5.35084 18.6575 5.4399C19.234 5.58052 19.8528 5.39771 20.2887 4.95709C20.4106 4.83521 20.57 4.6149 20.6403 4.47428C20.7528 4.2399 20.7668 4.16021 20.7668 3.74302C20.7668 3.33052 20.7528 3.24146 20.6403 3.00709C20.4809 2.66021 20.1106 2.29459 19.7684 2.13521C19.4262 1.98053 18.8168 1.94303 18.4981 2.06021ZM8.76215 12.3024C9.84965 12.7055 10.2387 14.0696 9.5309 14.9883C9.31527 15.2696 8.9684 15.518 8.65902 15.6071C8.29809 15.7149 7.72152 15.6774 7.41684 15.5321C7.08871 15.3774 6.72309 15.0212 6.56371 14.7024C6.43246 14.454 6.42309 14.3883 6.42309 13.9383C6.42309 13.4977 6.43715 13.418 6.54965 13.1883C6.95746 12.3587 7.90434 11.9837 8.76215 12.3024ZM16.1731 12.2087C16.9184 12.3446 17.4528 12.8883 17.6028 13.6477C17.7481 14.3743 17.3309 15.1712 16.6278 15.518C16.3887 15.6352 16.3137 15.6493 15.8684 15.6493C15.3996 15.6493 15.3621 15.6446 15.0809 15.4899C14.7293 15.2977 14.4481 15.0071 14.284 14.6508C14.1715 14.4165 14.1575 14.3227 14.1575 13.9149C14.1575 13.4883 14.1715 13.4227 14.2934 13.1743C14.5465 12.6821 15.0575 12.293 15.5825 12.204C15.8918 12.1524 15.8731 12.1524 16.1731 12.2087ZM8.54184 17.993C9.99496 19.2352 13.8715 19.2774 15.3903 18.068C15.7231 17.8055 15.8309 17.768 16.0371 17.8524C16.2246 17.9274 16.3559 18.1805 16.309 18.368C16.2246 18.6962 15.184 19.3383 14.359 19.5633C12.3668 20.1071 9.91527 19.9008 8.49496 19.0665C8.2934 18.954 8.03559 18.7665 7.92309 18.654C7.74027 18.4805 7.71215 18.429 7.71215 18.2649C7.71215 18.1243 7.74496 18.0446 7.83402 17.9555C8.04027 17.7493 8.26996 17.7587 8.54184 17.993Z" fill="#FAFAFA"/>
</svg>
