<svg width="24" height="24" viewBox="0 0 36 36" fill="none" xmlns="http://www.w3.org/2000/svg">
<path d="M18 36C27.9412 36 36 27.9411 36 18C36 8.05889 27.9412 0 18 0C8.05886 0 0 8.05889 0 18C0 27.9411 8.05886 36 18 36Z" fill="#BE123C"/>
<path d="M22.6151 21.2055H13.3423C11.0969 21.2086 8.94421 22.1017 7.3562 23.6892C5.76809 25.2767 4.87414 27.429 4.87019 29.6745L4.85525 30.1377C4.85338 30.1863 4.8613 30.2347 4.87854 30.2802C4.89577 30.3257 4.92197 30.3672 4.95559 30.4024C6.63505 32.1736 8.65953 33.5821 10.9042 34.5409C13.1489 35.4997 15.5661 35.9887 18.007 35.9776H18.0966C23.0303 35.9541 27.7237 33.9495 30.9762 30.4761C31.0371 30.4115 31.0722 30.3268 31.0744 30.2381L31.0915 29.6915V29.6862C31.0906 27.438 30.1975 25.282 28.6081 23.6919C27.0188 22.1017 24.8633 21.2074 22.6151 21.2055Z" fill="#171717"/>
<path d="M22.7558 8.46795C21.8135 7.34513 20.5057 6.59025 19.0621 6.33588C17.6184 6.08162 16.1314 6.34399 14.862 7.0771C13.5927 7.81021 12.6222 8.96708 12.1211 10.3446C11.6199 11.7221 11.6201 13.2322 12.1217 14.6095C12.6233 15.9869 13.5941 17.1435 14.8637 17.8762C16.1332 18.6089 17.6203 18.8709 19.0639 18.6161C20.5074 18.3613 21.815 17.6061 22.7571 16.483C23.6991 15.3599 24.2153 13.9409 24.215 12.4751C24.2157 11.0092 23.699 9.59003 22.7558 8.46795Z" fill="#171717"/>
</svg>
