<svg width="24" height="24" viewBox="0 0 24 24" fill="none" xmlns="http://www.w3.org/2000/svg">
<mask id="mask0_161_382" style="mask-type:alpha" maskUnits="userSpaceOnUse" x="0" y="0" width="24" height="24">
<rect y="-6.10352e-05" width="24" height="24" fill="#D9D9D9"/>
</mask>
<g mask="url(#mask0_161_382)">
<path d="M2.50195 2.03125C2.50195 2.05253 4.24663 4.54615 6.37429 7.57593C8.50621 10.6057 10.2381 13.1078 10.2254 13.1376C10.2168 13.1674 8.47642 15.1589 6.36578 17.5589C4.25089 19.9632 2.51472 21.9461 2.51046 21.9632C2.50195 21.9844 2.88493 22.0015 3.36153 22.0015H4.22536L7.62961 18.1291C9.4977 15.9972 11.0381 14.2568 11.0551 14.2568C11.0679 14.2568 12.2977 16.0015 13.7913 18.1291L16.5062 22.0015H19.4637C21.0892 22.0015 22.4168 21.9887 22.4168 21.9674C22.4168 21.9504 20.6041 19.3632 18.3956 16.2142C16.1828 13.0653 14.3785 10.4781 14.3871 10.461C14.3913 10.4483 16.0339 8.57168 18.0339 6.29934C20.0339 4.027 21.6977 2.12913 21.7317 2.08232C21.7871 2.00146 21.77 2.00146 20.919 2.00146H20.0466L17.7743 4.58444C16.5232 6.00572 15.0679 7.66104 14.5403 8.2653L13.5743 9.35466L10.9913 5.67806L8.41259 2.00146H5.45514C3.82961 2.00146 2.50195 2.01423 2.50195 2.03125ZM13.7785 11.993C17.1828 16.7589 19.9743 20.6823 19.9828 20.7121C19.9956 20.7547 19.7232 20.7674 18.6807 20.7674C17.3743 20.7674 17.3658 20.7674 17.2807 20.6695C17.2339 20.6185 14.4424 16.7164 11.0764 12.0015C7.71046 7.28657 4.94025 3.40147 4.91472 3.37168C4.88493 3.33338 5.15302 3.32061 6.22961 3.32061L7.58706 3.32487L13.7785 11.993Z" fill="#FAFAFA"/>
</g>
</svg>
